
          <svg xmlns="http://www.w3.org/2000/svg" width="800" height="400" viewBox="0 0 800 400">
            <!-- https://grabient.com/HQFgrCA0oGwIzRPRAmFi4HZEAYDM0KAnAByFE7RxhGQzAphh0Mjb0qYLB5HZygiUYFyg4gA/?mod=global&style=angularSwatches -->
        
          <defs>
            <clipPath id="squareClip">
              <rect x="0" y="0" width="800" height="400" />
            </clipPath>
          </defs>
          <g clip-path="url(#squareClip)">
        <path d="
              M 400.000,200.000
              L 847.214,200.000
              A 447.214,447.214 0 0 1 795.989,407.829
              Z
            " fill="rgb(212, 222, 199)" fill-opacity="1.000" /><path d="
              M 400.000,200.000
              L 795.989,407.829
              A 447.214,447.214 0 0 1 654.050,568.047
              Z
            " fill="rgb(194, 205, 190)" fill-opacity="1.000" /><path d="
              M 400.000,200.000
              L 654.050,568.047
              A 447.214,447.214 0 0 1 453.913,643.952
              Z
            " fill="rgb(177, 188, 181)" fill-opacity="1.000" /><path d="
              M 400.000,200.000
              L 453.913,643.952
              A 447.214,447.214 0 0 1 241.425,618.156
              Z
            " fill="rgb(160, 171, 172)" fill-opacity="1.000" /><path d="
              M 400.000,200.000
              L 241.425,618.156
              A 447.214,447.214 0 0 1 65.263,496.567
              Z
            " fill="rgb(143, 155, 163)" fill-opacity="1.000" /><path d="
              M 400.000,200.000
              L 65.263,496.567
              A 447.214,447.214 0 0 1 -34.215,307.039
              Z
            " fill="rgb(128, 139, 155)" fill-opacity="1.000" /><path d="
              M 400.000,200.000
              L -34.215,307.039
              A 447.214,447.214 0 0 1 -34.223,92.991
              Z
            " fill="rgb(113, 125, 147)" fill-opacity="1.000" /><path d="
              M 400.000,200.000
              L -34.223,92.991
              A 447.214,447.214 0 0 1 65.243,-96.543
              Z
            " fill="rgb(100, 112, 139)" fill-opacity="1.000" /><path d="
              M 400.000,200.000
              L 65.243,-96.543
              A 447.214,447.214 0 0 1 241.396,-218.145
              Z
            " fill="rgb(89, 100, 131)" fill-opacity="1.000" /><path d="
              M 400.000,200.000
              L 241.396,-218.145
              A 447.214,447.214 0 0 1 453.882,-243.956
              Z
            " fill="rgb(79, 89, 124)" fill-opacity="1.000" /><path d="
              M 400.000,200.000
              L 453.882,-243.956
              A 447.214,447.214 0 0 1 654.025,-168.065
              Z
            " fill="rgb(71, 80, 117)" fill-opacity="1.000" /><path d="
              M 400.000,200.000
              L 654.025,-168.065
              A 447.214,447.214 0 0 1 795.975,-7.856
              Z
            " fill="rgb(64, 72, 110)" fill-opacity="1.000" /><path d="
              M 400.000,200.000
              L 795.975,-7.856
              A 447.214,447.214 0 0 1 847.214,199.969
              Z
            " fill="rgb(60, 66, 104)" fill-opacity="1.000" />
          </g>
        </svg>
        